<svg width="12" height="14" viewBox="0 0 12 14" fill="none" xmlns="http://www.w3.org/2000/svg">
<path d="M7.6591 13.5363C8.11048 13.5363 8.50412 13.1427 8.50412 12.6913V10.7178H9.06834C9.40693 10.7178 9.63257 10.4921 9.63257 10.1536V4.51709H2.86719V10.1537C2.86719 10.4922 3.09288 10.7179 3.43142 10.7179H3.99569V12.6914C3.99569 13.1427 4.38923 13.5364 4.8407 13.5364C5.29204 13.5364 5.68563 13.1427 5.68563 12.6914V10.7179H6.81413V12.6914C6.81409 13.1427 7.20772 13.5363 7.6591 13.5363Z" fill="#2AD9FF"/>
<path d="M11.0423 10.1537C11.4937 10.1537 11.8872 9.76007 11.8872 9.30864V5.36174C11.8872 4.91275 11.4937 4.51709 11.0423 4.51709C10.5909 4.51709 10.1973 4.91275 10.1973 5.36174V9.30864C10.1973 9.76002 10.5908 10.1537 11.0423 10.1537Z" fill="#2AD9FF"/>
<path d="M1.45821 10.1537C1.90963 10.1537 2.30322 9.76007 2.30322 9.30864V5.36174C2.30322 4.91275 1.90968 4.51709 1.45821 4.51709C1.00682 4.51709 0.613281 4.91275 0.613281 5.36174V9.30864C0.613281 9.76002 1.00682 10.1537 1.45821 10.1537Z" fill="#2AD9FF"/>
<path d="M8.95545 0.121274C8.84265 0.00775244 8.67471 0.00775244 8.56191 0.121274L7.80515 0.875516L7.77023 0.910383C7.32151 0.685683 6.81841 0.573468 6.25815 0.572387C6.2554 0.572387 6.2527 0.572297 6.24995 0.572297H6.24986C6.24702 0.572297 6.24441 0.572387 6.24157 0.572387C5.68135 0.573468 5.17825 0.685683 4.72957 0.910383L4.69457 0.875516L3.93785 0.121274C3.82496 0.00775244 3.65711 0.00775244 3.54431 0.121274C3.43142 0.234165 3.43142 0.401699 3.54431 0.5145L4.27634 1.24667C4.04047 1.40416 3.82658 1.59687 3.64058 1.81729C3.19527 2.34512 2.91124 3.03206 2.87219 3.77635C2.87183 3.7841 2.87106 3.79176 2.8707 3.7995C2.86831 3.85018 2.86719 3.90113 2.86719 3.95226H9.63257C9.63257 3.90113 9.63136 3.85018 9.62906 3.7995C9.6287 3.79176 9.62793 3.7841 9.62748 3.77635C9.58851 3.03206 9.3044 2.34508 8.85909 1.81734C8.67318 1.59692 8.4592 1.4042 8.22333 1.24671L8.95545 0.514545C9.06834 0.401699 9.06834 0.234165 8.95545 0.121274ZM4.83962 2.9671C4.60618 2.9671 4.41694 2.77786 4.41694 2.54442C4.41694 2.31098 4.60618 2.12173 4.83962 2.12173C5.07306 2.12173 5.26231 2.31098 5.26231 2.54442C5.26231 2.77786 5.07306 2.9671 4.83962 2.9671ZM7.66014 2.9671C7.4267 2.9671 7.23745 2.77786 7.23745 2.54442C7.23745 2.31098 7.4267 2.12173 7.66014 2.12173C7.89358 2.12173 8.08282 2.31098 8.08282 2.54442C8.08282 2.77786 7.89358 2.9671 7.66014 2.9671Z" fill="#2AD9FF"/>
</svg>
