<svg width="12" height="14" viewBox="0 0 12 14" fill="none" xmlns="http://www.w3.org/2000/svg">
<path d="M8.90702 0.0361328C8.93844 0.0361328 8.96985 0.0361328 9.00305 0.0361328C9.08012 0.988181 8.71672 1.69955 8.27508 2.2147C7.84174 2.72629 7.24834 3.22247 6.28859 3.14719C6.22456 2.20877 6.58855 1.55016 7.0296 1.0362C7.43863 0.55721 8.18853 0.130982 8.90702 0.0361328Z" fill="#2AD9FF"/>
<path d="M11.8127 9.94571C11.8127 9.9552 11.8127 9.9635 11.8127 9.97239C11.543 10.7893 11.1582 11.4894 10.6887 12.1391C10.2601 12.7289 9.73491 13.5227 8.79709 13.5227C7.98672 13.5227 7.44845 13.0016 6.61793 12.9874C5.73939 12.9732 5.25625 13.4231 4.453 13.5363C4.36111 13.5363 4.26923 13.5363 4.17912 13.5363C3.58928 13.451 3.11325 12.9839 2.76646 12.563C1.74387 11.3192 0.953657 9.71274 0.806641 7.65689C0.806641 7.45533 0.806641 7.25437 0.806641 7.05282C0.868885 5.58147 1.58381 4.38518 2.53408 3.80542C3.0356 3.49716 3.72503 3.23454 4.49272 3.35192C4.82172 3.4029 5.15785 3.51553 5.45247 3.62698C5.73168 3.73428 6.08085 3.92457 6.41163 3.91449C6.63571 3.90797 6.85861 3.79119 7.08447 3.70879C7.74604 3.46989 8.39457 3.19601 9.2494 3.32465C10.2767 3.47997 11.0059 3.93643 11.4564 4.64068C10.5874 5.19377 9.9003 6.02726 10.0177 7.45059C10.122 8.7435 10.8737 9.49992 11.8127 9.94571Z" fill="#2AD9FF"/>
</svg>
