<svg width="50" height="50" viewBox="0 0 50 50" fill="none" xmlns="http://www.w3.org/2000/svg">
<g clip-path="url(#clip0_464_1757)">
<path d="M30.6563 9.63643C32.5784 8.08379 33.0136 6.42402 33.04 5.30497C33.1047 2.5826 30.955 0.590413 30.7095 0.372347C30.1017 -0.168279 29.1707 -0.113787 28.63 0.494124C28.0893 1.10204 28.1438 2.03299 28.7517 2.57372C28.7655 2.58602 30.1274 3.86024 30.0948 5.23515C30.0774 5.96767 29.6555 6.65771 28.8051 7.34472C26.883 8.89736 26.4478 10.5571 26.4214 11.6762C26.3566 14.3985 28.5064 16.3907 28.7517 16.6089C29.0331 16.8591 29.3843 16.9823 29.734 16.9823C30.1398 16.9823 30.5438 16.8163 30.8343 16.4897C31.3749 15.8818 31.3233 14.9533 30.7154 14.4127C30.3288 14.0611 29.3329 12.8948 29.3668 11.735C29.3882 11.0065 29.8099 10.32 30.6563 9.63643Z" fill="#34485B"/>
<path d="M21.3106 9.63643C23.2327 8.08379 23.6678 6.42402 23.6943 5.30497C23.759 2.5826 21.6092 0.590413 21.3638 0.372347C20.7561 -0.168279 19.825 -0.113787 19.2842 0.494124C18.7436 1.10204 18.7981 2.03299 19.406 2.57372C19.4198 2.58602 20.7817 3.86024 20.7491 5.23515C20.7317 5.96767 20.3098 6.65771 19.4593 7.34472C17.5373 8.89736 17.1021 10.5571 17.0756 11.6762C17.011 14.3985 19.1607 16.3907 19.406 16.6089C19.6874 16.8591 20.0385 16.9823 20.3883 16.9823C20.7941 16.9823 21.1981 16.8163 21.4885 16.4897C22.0292 15.8818 21.9776 14.9533 21.3697 14.4127C20.9831 14.0611 19.9872 12.8948 20.0211 11.735C20.0424 11.0065 20.4642 10.32 21.3106 9.63643Z" fill="#34485B"/>
<path d="M42.3979 24.0379H40.6546V22.9577C40.6546 22.1442 39.9951 21.4846 39.1815 21.4846H1.58633C0.772853 21.4846 0.113281 22.1441 0.113281 22.9577V30.7319C0.113281 37.6014 3.91553 43.6417 9.62394 47.054H1.58721C0.773732 47.054 0.11416 47.7135 0.11416 48.5271C0.11416 49.3406 0.773537 50.0001 1.58721 50.0001H39.1816C39.9951 50.0001 40.6547 49.3406 40.6547 48.5271C40.6547 47.7135 39.9952 47.054 39.1816 47.054H31.144C34.3901 45.1136 37.0197 42.3236 38.6842 39.014H42.398C46.5269 39.014 49.8861 35.6549 49.8861 31.5259C49.8861 27.397 46.5269 24.0379 42.3979 24.0379ZM37.7086 30.7319C37.7085 39.7319 29.9367 47.054 20.3839 47.054C10.8312 47.054 3.05938 39.7319 3.05938 30.7319V24.4307H37.7085V30.7319H37.7086ZM42.3979 36.068H39.8632C40.3779 34.3728 40.6546 32.5825 40.6546 30.7319V26.9838H42.3979C44.9024 26.9838 46.94 29.0215 46.94 31.5259C46.94 34.0304 44.9024 36.068 42.3979 36.068Z" fill="#34485B"/>
<path d="M11.9649 9.63655C13.887 8.08391 14.3221 6.42414 14.3486 5.3051C14.4133 2.58273 12.2635 0.590535 12.0181 0.372469C11.4103 -0.168157 10.4793 -0.113665 9.93854 0.494246C9.39791 1.10206 9.4524 2.03312 10.0603 2.57384C10.0741 2.58614 11.436 3.86037 11.4034 5.23527C11.386 5.96779 10.9641 6.65783 10.1136 7.34485C8.19156 8.89749 7.7564 10.5573 7.72994 11.6763C7.66539 14.3986 9.8151 16.3908 10.0604 16.6089C10.3411 16.8585 10.6906 16.9813 11.0388 16.9813C11.4448 16.9813 11.849 16.8144 12.1401 16.4872C12.6807 15.8792 12.6262 14.9483 12.0183 14.4076C12.0046 14.3953 10.6426 13.121 10.6753 11.7461C10.6924 11.0136 11.1143 10.3235 11.9649 9.63655Z" fill="#34485B"/>
</g>
<defs>
<clipPath id="clip0_464_1757">
<rect width="50" height="50" fill="white"/>
</clipPath>
</defs>
</svg>
