<svg width="50" height="48" viewBox="0 0 50 48" fill="none" xmlns="http://www.w3.org/2000/svg">
<path d="M21.533 33.6794H4.08511C3.67957 33.6794 3.34932 33.3489 3.34932 32.9434V4.55643C3.34932 4.15099 3.67967 3.82064 4.08511 3.82064H45.9132C46.3189 3.82064 46.649 4.15099 46.649 4.55643V10.7735C47.8741 10.9182 49.022 11.3196 49.9982 11.9796V4.55643C49.9982 2.30376 48.1651 0.471313 45.9131 0.471313H4.08511C1.83317 0.471313 0 2.30365 0 4.55643V32.9433C0 35.1961 1.83317 37.0286 4.08511 37.0286H18.1052V42.5047H15.8943C14.5075 42.5047 13.3823 43.6291 13.3823 45.0167C13.3823 46.4043 14.5075 47.5287 15.8943 47.5287H22.946C22.0646 46.2891 21.5331 44.7844 21.5331 43.1507L21.533 33.6794Z" fill="#31276E"/>
<path d="M35.5912 44.9953V41.3771H28.232V18.2668C28.232 17.7793 28.6278 17.3827 29.1151 17.3827H45.7666C46.2539 17.3827 46.6496 17.7793 46.6496 18.2668V25.4191H47.9041C48.671 25.4191 49.3808 25.6406 49.9988 26.002V18.2668C49.9988 15.9321 48.1002 14.0334 45.7665 14.0334H29.1151C26.7815 14.0334 24.8828 15.9321 24.8828 18.2668V43.1506C24.8828 45.4852 26.7814 47.3838 29.1151 47.3838H36.3467C35.8856 46.7215 35.5912 45.7987 35.5912 44.9953Z" fill="#31276E"/>
<path d="M47.9032 27.5125H39.7803C38.6238 27.5125 37.6836 28.4536 37.6836 29.6097V44.9954C37.6836 46.1515 38.6238 47.0919 39.7803 47.0919H47.9032C49.0594 47.0919 49.9996 46.1515 49.9996 44.9954V29.6096C49.9996 28.4535 49.0593 27.5125 47.9032 27.5125ZM40.1955 30.0243H47.4877V43.324H40.1955V30.0243ZM43.8426 46.0731C43.6119 46.0731 43.4059 45.9798 43.2489 45.8359C43.0705 45.674 42.9561 45.4465 42.9561 45.1873C42.9561 44.6985 43.3519 44.3026 43.8426 44.3026C44.3299 44.3026 44.7256 44.6985 44.7256 45.1873C44.7256 45.4465 44.6111 45.6739 44.4345 45.8359C44.2774 45.9799 44.0714 46.0731 43.8426 46.0731Z" fill="#31276E"/>
</svg>
