<svg width="50" height="50" viewBox="0 0 50 50" fill="none" xmlns="http://www.w3.org/2000/svg">
<path d="M29.0043 22.4476H28.3066V27.539H29.066C30.1949 27.5195 30.9973 26.475 30.9973 25C30.998 23.7656 30.4738 22.4476 29.0043 22.4476Z" fill="#2B5379"/>
<path d="M20.0703 25.9148H21.4852L20.7773 23.9515L20.0703 25.9148Z" fill="#2B5379"/>
<path d="M30.7522 15.0422C25.2623 11.8726 18.2155 13.7601 15.0451 19.2508C13.5092 21.9101 13.1022 25.0086 13.8967 27.975C14.692 30.9414 16.5944 33.4211 19.2537 34.9562C21.0592 35.9992 23.0334 36.4945 24.9834 36.4945C28.96 36.4945 32.8326 34.432 34.9608 30.7484C38.1311 25.2586 36.2428 18.2117 30.7522 15.0422ZM24.0678 29.7461C23.9412 29.7922 23.8115 29.8141 23.6842 29.8141C23.2209 29.8141 22.7865 29.5273 22.6201 29.0664L22.2998 28.1766H19.2561L18.9358 29.0664C18.724 29.6531 18.0748 29.9594 17.4889 29.7469C16.9014 29.5352 16.5967 28.8875 16.8084 28.3L19.3811 21.1601C19.6225 20.5547 20.1655 20.1867 20.7787 20.1867C21.3912 20.1867 21.9342 20.5547 22.1623 21.1234L24.749 28.3C24.96 28.8867 24.6553 29.5352 24.0678 29.7461ZM29.0865 29.8H27.1764C26.5522 29.8 26.0459 29.2937 26.0459 28.6695V21.3164C26.0459 20.6922 26.5522 20.1859 27.1764 20.1859H29.0045C31.51 20.1859 33.2592 22.1656 33.2592 25C33.2584 27.6945 31.4655 29.7586 29.0865 29.8Z" fill="#2B5379"/>
<path d="M25.0008 0.725769C11.6156 0.725769 0.726562 11.6148 0.726562 25C0.726562 38.3851 11.6156 49.2742 25.0008 49.2742C38.3859 49.2742 49.275 38.3851 49.275 25C49.275 11.6148 38.3859 0.725769 25.0008 0.725769ZM25.0008 45.368C20.0867 45.368 15.5742 43.6187 12.0516 40.7109L16.4227 36.3398C15.3695 35.5461 14.4359 34.625 13.6508 33.5875L9.28984 37.9484C6.38125 34.4266 4.63281 29.914 4.63281 25C4.63281 13.7687 13.7695 4.63202 25.0008 4.63202C29.9148 4.63202 34.4273 6.38124 37.95 9.28905L33.582 13.657C34.6344 14.4508 35.568 15.3719 36.3523 16.4101L40.7117 12.0508C43.6203 15.5734 45.3687 20.0859 45.3687 25C45.3687 36.2312 36.232 45.368 25.0008 45.368Z" fill="#2B5379"/>
</svg>
