<svg width="46" height="48" viewBox="0 0 46 48" fill="none" xmlns="http://www.w3.org/2000/svg">
<path d="M28.2445 25.5656C28.2445 24.7891 27.6148 24.1594 26.8383 24.1594H11.7617C10.9852 24.1594 10.3555 24.7891 10.3555 25.5656C10.3555 26.3422 10.9852 26.9719 11.7617 26.9719H26.8383C27.6148 26.9719 28.2445 26.3422 28.2445 25.5656Z" fill="#293A6A"/>
<path d="M11.7617 32.6375C10.9852 32.6375 10.3555 33.2672 10.3555 34.0438C10.3555 34.8203 10.9852 35.45 11.7617 35.45H18.5414C19.318 35.45 19.9477 34.8203 19.9477 34.0438C19.9477 33.2672 19.318 32.6375 18.5414 32.6375H11.7617Z" fill="#293A6A"/>
<path d="M24.8594 44.4688H7.29687C4.875 44.4688 2.90625 42.4984 2.90625 40.0781V15.1422H9.49531C12.2562 15.1422 14.5016 12.8969 14.5016 10.1375V3.53125H34.8281C37.25 3.53125 39.2188 5.50156 39.2188 7.92188V23.5781C39.2188 24.3547 39.8484 24.9844 40.625 24.9844C41.4016 24.9844 42.0312 24.3547 42.0312 23.5781V7.92188C42.0312 3.95 38.8 0.71875 34.8281 0.71875H11.625C9.775 0.71875 7.96563 1.46719 6.66094 2.77031L2.14531 7.28594C0.842188 8.59063 0.09375 10.4 0.09375 12.25V40.0781C0.09375 44.05 3.325 47.2812 7.29687 47.2812H24.8594C25.6359 47.2812 26.2656 46.6516 26.2656 45.875C26.2656 45.0984 25.6375 44.4688 24.8594 44.4688ZM4.13594 9.275L8.65156 4.75938C9.42969 3.97969 10.5156 3.53125 11.625 3.53125H11.6891V10.1391C11.6891 11.3469 10.7062 12.3312 9.49687 12.3312H2.90781V12.25C2.90781 11.1406 3.35469 10.0563 4.13594 9.275Z" fill="#293A6A"/>
<path d="M45.8115 31.3641C45.6818 30.1875 44.7365 29.2828 43.5599 29.2172C40.8068 29.0641 38.7084 28.35 37.1443 27.0344C36.2443 26.2766 34.9381 26.2735 34.0412 27.0328C32.4756 28.35 30.3756 29.0641 27.6224 29.2172C26.4443 29.2828 25.499 30.1875 25.374 31.3656C25.1662 33.2906 25.1928 36.2328 26.4928 39.3047C28.7053 44.5297 33.0334 46.5266 34.7912 47.1422C35.0537 47.2344 35.3256 47.2813 35.5959 47.2813C35.8662 47.2813 36.1365 47.2344 36.399 47.1422C38.1568 46.5266 42.4849 44.5297 44.6974 39.3047C45.9928 36.2328 46.0178 33.2922 45.8115 31.3641ZM42.1006 38.2094C40.3787 42.2781 37.0678 43.9031 35.5896 44.4453C34.1146 43.9031 30.8037 42.2797 29.0803 38.2094C28.0865 35.8641 28.0037 33.5938 28.1349 32.0031C31.2084 31.7813 33.6537 30.9266 35.5896 29.3969C37.5271 30.9266 39.974 31.7813 43.0474 32.0031C43.1787 33.5922 43.0943 35.861 42.1006 38.2094Z" fill="#293A6A"/>
</svg>
