<svg width="50" height="50" viewBox="0 0 50 50" fill="none" xmlns="http://www.w3.org/2000/svg">
<g clip-path="url(#clip0_464_1837)">
<path d="M50 25.0001C50.0042 28.2801 49.3619 31.5287 48.1096 34.5602C46.8573 37.5918 45.0198 40.3467 42.702 42.6675C40.3841 44.9883 37.6316 46.8295 34.6017 48.0856C31.5718 49.3418 28.3239 49.9884 25.0439 49.9884C21.7639 49.9884 18.5161 49.3418 15.4862 48.0856C12.4563 46.8295 9.70373 44.9883 7.38593 42.6675C5.06812 40.3467 3.23054 37.5918 1.97828 34.5602C0.726017 31.5287 0.0836368 28.2801 0.087875 25.0001C0.087875 24.558 0.26347 24.1341 0.57603 23.8216C0.888591 23.509 1.31251 23.3334 1.75454 23.3334C2.19657 23.3334 2.62049 23.509 2.93305 23.8216C3.24561 24.1341 3.42121 24.558 3.42121 25.0001C3.42672 30.3097 5.3837 35.432 8.91989 39.3927C12.4561 43.3534 17.3248 45.8761 22.5998 46.4809C27.8748 47.0858 33.1881 45.7306 37.5291 42.6731C41.87 39.6156 44.9356 35.0692 46.1428 29.8986C47.35 24.7281 46.6145 19.2942 44.0762 14.6306C41.538 9.96703 37.3741 6.39912 32.3766 4.6056C27.3791 2.81208 21.8967 2.91808 16.9722 4.90343C12.0478 6.88879 8.02491 10.615 5.66883 15.3732H9.15367C9.5957 15.3732 10.0196 15.5488 10.3322 15.8613C10.6447 16.1739 10.8203 16.5978 10.8203 17.0399C10.8203 17.4819 10.6447 17.9058 10.3322 18.2184C10.0196 18.5309 9.5957 18.7065 9.15367 18.7065H1.66667C1.22464 18.7065 0.800716 18.5309 0.488155 18.2184C0.175595 17.9058 0 17.4819 0 17.0399V9.07965C0 8.63762 0.175595 8.2137 0.488155 7.90114C0.800716 7.58858 1.22464 7.41298 1.66667 7.41298C2.10869 7.41298 2.53262 7.58858 2.84518 7.90114C3.15774 8.2137 3.33333 8.63762 3.33333 9.07965V12.6726C6.04737 7.87058 10.2763 4.10339 15.3589 1.96019C20.4414 -0.183009 26.0909 -0.581377 31.4239 0.827386C36.7569 2.23615 41.4727 5.37261 44.8337 9.74626C48.1948 14.1199 50.0116 19.4841 50 25.0001ZM23.3333 33.1311V26.5324C19.5342 25.9129 16.6667 23.2195 16.6667 20.0001C16.6667 16.7806 19.5342 14.0872 23.3333 13.4678V11.6667C23.3333 11.2247 23.5089 10.8008 23.8215 10.4882C24.1341 10.1757 24.558 10.0001 25 10.0001C25.442 10.0001 25.866 10.1757 26.1785 10.4882C26.4911 10.8008 26.6667 11.2247 26.6667 11.6667V13.4678C30.4658 14.0872 33.3333 16.7806 33.3333 20.0001C33.3333 20.4421 33.1577 20.866 32.8452 21.1786C32.5326 21.4911 32.1087 21.6667 31.6667 21.6667C31.2246 21.6667 30.8007 21.4911 30.4882 21.1786C30.1756 20.866 30 20.4421 30 20.0001C30 18.581 28.5856 17.3387 26.6667 16.8691V23.4678C30.4658 24.0872 33.3333 26.7807 33.3333 30.0001C33.3333 33.2195 30.4658 35.9129 26.6667 36.5324V38.3334C26.6667 38.7754 26.4911 39.1994 26.1785 39.5119C25.866 39.8245 25.442 40.0001 25 40.0001C24.558 40.0001 24.1341 39.8245 23.8215 39.5119C23.5089 39.1994 23.3333 38.7754 23.3333 38.3334V36.5324C19.5342 35.9129 16.6667 33.2195 16.6667 30.0001C16.6667 29.558 16.8423 29.1341 17.1548 28.8216C17.4674 28.509 17.8913 28.3334 18.3333 28.3334C18.7754 28.3334 19.1993 28.509 19.5118 28.8216C19.8244 29.1341 20 29.558 20 30.0001C20 31.4192 21.4144 32.6614 23.3333 33.1311ZM26.6667 26.8691V33.1311C28.5856 32.6614 30 31.4192 30 30.0001C30 28.581 28.5856 27.3387 26.6667 26.8691ZM23.3333 23.1311V16.8691C21.4144 17.3387 20 18.581 20 20.0001C20 21.4191 21.4144 22.6614 23.3333 23.1311Z" fill="#6A4367"/>
</g>
<defs>
<clipPath id="clip0_464_1837">
<rect width="50" height="50" fill="white"/>
</clipPath>
</defs>
</svg>
