<svg width="43" height="31" viewBox="0 0 43 31" fill="none" xmlns="http://www.w3.org/2000/svg">
<path d="M28.5792 19.3168C27.826 19.4418 27.0028 19.3737 26.2995 19.0508C25.0363 18.4707 24.4376 17.2094 24.3467 15.8392C24.2922 15.0184 24.3848 14.1637 24.7098 13.4275C25.185 12.3512 26.0719 11.6806 27.1964 11.5027C27.7783 11.4108 28.3397 11.4332 28.8806 11.5698C29.6432 11.7625 30.2496 12.1762 30.6999 12.811C31.2846 13.6356 31.4606 14.7113 31.4143 15.71C31.3793 16.4643 31.2033 17.1998 30.8192 17.8303C30.3143 18.6595 29.5152 19.1616 28.5792 19.3168ZM25.7295 14.8815C25.6671 15.4684 25.7033 16.0141 25.838 16.5188C26.0668 17.3745 26.6522 18.0461 27.5362 18.1775C28.4765 18.3171 29.3069 17.9035 29.7339 17.0164C30.0173 16.4274 30.0922 15.7368 30.0472 15.077C29.9702 13.9508 29.4489 12.8665 28.2747 12.6531C28.1186 12.6248 27.9596 12.6138 27.7975 12.6202C26.5256 12.6712 25.8568 13.6836 25.7295 14.8815Z" fill="#2AD9FF"/>
<path d="M33.5061 13.546C33.4682 13.9754 33.7178 14.2513 34.0737 14.4146C34.2971 14.517 34.5342 14.5975 34.785 14.6559C35.1182 14.7334 35.4542 14.8132 35.7931 14.8952C36.2618 15.0085 36.7619 15.1963 37.1371 15.4888C37.4933 15.7665 37.7084 16.1303 37.7823 16.5804C37.9123 17.3723 37.6871 18.155 37.0838 18.6808C36.3795 19.295 35.3183 19.4363 34.4221 19.3527C33.7166 19.2869 32.9959 19.0392 32.5122 18.4975C32.1748 18.1195 31.9924 17.6546 31.9649 17.1028C31.9644 17.093 31.9688 17.0882 31.9781 17.0882H33.2433C33.2541 17.0882 33.2602 17.0937 33.2618 17.1048C33.3085 17.4398 33.4772 17.7119 33.7682 17.9209C34.1219 18.1748 34.5665 18.2646 35.008 18.2555C35.4866 18.2456 36.0443 18.0884 36.3226 17.6606C36.4805 17.4176 36.5172 17.0874 36.4048 16.813C36.3197 16.6054 36.1376 16.4475 35.9431 16.347C35.7288 16.2365 35.5062 16.153 35.2754 16.0966C34.8265 15.9871 34.4019 15.8827 34.0018 15.7836C33.6549 15.6976 33.3352 15.5653 33.0427 15.3866C32.3972 14.9922 32.1033 14.3493 32.1508 13.5873C32.2161 12.5465 32.9646 11.8459 33.9039 11.5849C34.4336 11.4379 34.9912 11.4099 35.5768 11.501C36.1613 11.5921 36.7431 11.8464 37.1496 12.2998C37.4886 12.6776 37.6697 13.1422 37.6929 13.6937C37.6933 13.7068 37.6872 13.7133 37.6745 13.7133H36.4282C36.4256 13.7133 36.4231 13.7123 36.4212 13.7105C36.4193 13.7087 36.4181 13.7063 36.4178 13.7036C36.3156 12.7601 35.4112 12.4874 34.6181 12.5851C34.0915 12.65 33.5589 12.9457 33.5061 13.546Z" fill="#2AD9FF"/>
<path d="M16.9598 15.8563C16.9641 15.6794 16.963 15.522 16.9564 15.3841C16.9263 14.7541 16.4195 14.5121 15.8704 14.5331C15.3899 14.5514 14.959 14.7758 14.8575 15.2866C14.8556 15.2965 14.8497 15.3015 14.8399 15.3015H13.6652C13.6599 15.3015 13.6574 15.2987 13.6577 15.2933C13.6875 14.8403 13.8549 14.4586 14.16 14.1483C14.7468 13.5519 15.6937 13.4183 16.4773 13.5291C17.0063 13.6041 17.5604 13.8372 17.8922 14.2891C18.1206 14.6004 18.2348 14.9533 18.2348 15.3477C18.2347 16.6354 18.2349 17.9302 18.2356 19.2321C18.2356 19.234 18.2352 19.2358 18.2345 19.2375C18.2338 19.2393 18.2328 19.2408 18.2315 19.2421C18.2303 19.2434 18.2287 19.2445 18.2271 19.2452C18.2254 19.2459 18.2236 19.2462 18.2218 19.2462H17.0035C17.0004 19.2462 16.9974 19.245 16.9953 19.2428C16.9931 19.2405 16.9919 19.2375 16.9919 19.2344V18.3863C16.9919 18.3335 16.9789 18.3299 16.9528 18.3754C16.74 18.7504 16.4284 19.0203 16.018 19.1851C15.5432 19.376 15.0508 19.3872 14.5409 19.2188C13.8658 18.9958 13.4253 18.3784 13.4238 17.6474C13.4221 16.7075 14.0686 16.222 14.8874 16.0364C15.065 15.9962 15.2367 15.9704 15.4024 15.9592C15.8967 15.9262 16.4124 15.8955 16.9494 15.8672C16.9522 15.867 16.9548 15.8658 16.9567 15.8638C16.9586 15.8618 16.9598 15.8591 16.9598 15.8563ZM14.7235 17.4648C14.6569 17.9572 14.9974 18.2651 15.4413 18.3217C15.766 18.3633 16.0646 18.3119 16.3372 18.1676C16.6618 17.9961 16.9027 17.684 16.9487 17.3101C16.9714 17.1272 16.9586 16.9305 16.9622 16.7395C16.9623 16.738 16.962 16.7365 16.9614 16.7351C16.9609 16.7338 16.9601 16.7325 16.959 16.7315C16.958 16.7305 16.9567 16.7297 16.9554 16.7292C16.954 16.7287 16.9526 16.7285 16.9511 16.7286C16.5448 16.7525 16.1107 16.7798 15.6489 16.8105C15.2691 16.836 14.7845 17.0139 14.7235 17.4648Z" fill="#2AD9FF"/>
<path d="M19.3763 18.3607C18.8794 17.6755 18.766 16.7295 18.8644 15.9049C19.0132 14.6577 19.7638 13.7109 21.0145 13.5263C21.9555 13.3877 22.9921 13.6723 23.5411 14.5308C23.7454 14.8502 23.864 15.2105 23.8968 15.6117C23.8969 15.6128 23.8967 15.614 23.8963 15.6151C23.896 15.6162 23.8954 15.6173 23.8946 15.6181C23.8938 15.619 23.8928 15.6197 23.8917 15.6201C23.8907 15.6206 23.8895 15.6208 23.8883 15.6208H22.6907C22.6874 15.6208 22.6843 15.6197 22.6818 15.6176C22.6793 15.6154 22.6776 15.6125 22.677 15.6092C22.5581 14.9448 22.0737 14.5313 21.406 14.5714C20.6265 14.6181 20.2545 15.285 20.1677 16.0178C20.0645 16.8908 20.2576 18.1049 21.2787 18.2717C21.5235 18.3117 21.8138 18.2818 22.0409 18.1756C22.391 18.0116 22.6068 17.6869 22.6796 17.2858C22.6805 17.2808 22.6831 17.2763 22.6869 17.273C22.6908 17.2698 22.6956 17.268 22.7006 17.2679H23.8878C23.8965 17.2679 23.9006 17.2725 23.9001 17.2816C23.8921 17.4038 23.8719 17.5301 23.8396 17.6604C23.6229 18.534 22.9841 19.0959 22.1441 19.2843C21.6365 19.3981 21.1304 19.3829 20.626 19.2387C20.1108 19.0916 19.6943 18.7989 19.3763 18.3607Z" fill="#2AD9FF"/>
<path d="M9.29053 14.6336C9.29137 14.6368 9.29315 14.6395 9.29562 14.6416C9.29808 14.6436 9.30111 14.6448 9.30427 14.645C9.30743 14.6452 9.31057 14.6444 9.31325 14.6427C9.31593 14.6409 9.31802 14.6384 9.31922 14.6354C9.50954 14.1736 9.82195 13.8485 10.2564 13.6601C10.6731 13.4795 11.1592 13.4609 11.5905 13.5802C12.4106 13.8064 12.8234 14.5473 12.8231 15.3899C12.8228 16.6854 12.8227 17.9658 12.8229 19.231C12.8229 19.2412 12.8179 19.2463 12.8079 19.2463L11.5474 19.2461C11.5381 19.2461 11.5334 19.2413 11.5334 19.2317C11.5352 18.0759 11.5353 16.9005 11.5339 15.7054C11.5332 15.1795 11.3205 14.7383 10.7765 14.6416C10.0382 14.5102 9.50416 15.0157 9.50391 15.7608C9.50343 16.9345 9.50335 18.0906 9.50367 19.2293C9.50367 19.2315 9.50325 19.2337 9.50242 19.2357C9.5016 19.2377 9.50039 19.2396 9.49887 19.2412C9.49735 19.2427 9.49554 19.244 9.49355 19.2448C9.49156 19.2456 9.48943 19.2461 9.48728 19.2461H8.2612C8.25968 19.2461 8.25817 19.2458 8.25677 19.2452C8.25536 19.2446 8.25409 19.2438 8.25301 19.2427C8.25194 19.2416 8.25109 19.2403 8.25051 19.2389C8.24992 19.2375 8.24962 19.236 8.24962 19.2344C8.25011 17.9947 8.25051 16.8214 8.25083 15.7148C8.25083 15.5851 8.24239 15.4722 8.22551 15.376C8.13148 14.8418 7.67408 14.5765 7.17497 14.6272C6.67489 14.6782 6.32141 15.0419 6.23943 15.5483C6.22593 15.6317 6.21942 15.7465 6.2199 15.8925C6.22264 16.9744 6.22296 18.0856 6.22087 19.2263C6.22087 19.2315 6.21884 19.2366 6.21522 19.2403C6.2116 19.244 6.20669 19.2461 6.20158 19.2461H4.93523C4.93376 19.2461 4.93235 19.2455 4.93131 19.2444C4.93027 19.2433 4.92969 19.2419 4.92969 19.2404V13.623C4.92969 13.62 4.93086 13.6171 4.93294 13.615C4.93502 13.6128 4.93784 13.6116 4.94078 13.6116L6.15794 13.6114C6.16075 13.6114 6.16345 13.6125 6.16544 13.6146C6.16743 13.6167 6.16855 13.6196 6.16855 13.6225V14.576C6.16855 14.5842 6.1724 14.5894 6.18012 14.5916C6.18735 14.5937 6.19242 14.5911 6.19531 14.5836C6.44945 13.9249 7.00016 13.5339 7.68204 13.5074C8.45096 13.4775 9.06918 13.8569 9.29053 14.6336Z" fill="#2AD9FF"/>
</svg>
