<svg width="46" height="46" viewBox="0 0 46 46" fill="none" xmlns="http://www.w3.org/2000/svg">
<g opacity="0.2">
<path d="M23.0007 24.4375C21.2949 24.4375 19.6273 23.9317 18.2089 22.9839C16.7906 22.0362 15.6851 20.6892 15.0323 19.1132C14.3795 17.5371 14.2087 15.8029 14.5415 14.1299C14.8742 12.4568 15.6957 10.9199 16.9019 9.71372C18.1082 8.50749 19.645 7.68604 21.3181 7.35324C22.9912 7.02044 24.7254 7.19125 26.3014 7.84405C27.8774 8.49686 29.2244 9.60235 30.1721 11.0207C31.1199 12.4391 31.6257 14.1067 31.6257 15.8125C31.6257 18.1 30.717 20.2938 29.0995 21.9113C27.482 23.5288 25.2882 24.4375 23.0007 24.4375ZM23.0007 10.0625C21.8635 10.0625 20.7518 10.3997 19.8062 11.0316C18.8606 11.6634 18.1236 12.5614 17.6884 13.6121C17.2532 14.6628 17.1393 15.8189 17.3612 16.9343C17.5831 18.0497 18.1307 19.0742 18.9349 19.8784C19.739 20.6825 20.7636 21.2302 21.879 21.452C22.9943 21.6739 24.1505 21.56 25.2012 21.1248C26.2518 20.6896 27.1499 19.9526 27.7817 19.007C28.4135 18.0615 28.7507 16.9498 28.7507 15.8125C28.7507 14.2875 28.1449 12.825 27.0666 11.7467C25.9883 10.6683 24.5257 10.0625 23.0007 10.0625Z" fill="#25376E"/>
<path d="M23.0007 44.5625C19.813 44.5604 16.6654 43.8515 13.7845 42.4869C10.9036 41.1222 8.36113 39.1358 6.3401 36.6706L5.5926 35.7506L6.3401 34.845C8.36283 32.383 10.9061 30.3999 13.7868 29.0384C16.6676 27.6768 19.8144 26.9706 23.0007 26.9706C26.1871 26.9706 29.3338 27.6768 32.2146 29.0384C35.0954 30.3999 37.6386 32.383 39.6614 34.845L40.4089 35.7506L39.6614 36.6706C37.6403 39.1358 35.0979 41.1222 32.217 42.4869C29.3361 43.8515 26.1885 44.5604 23.0007 44.5625ZM9.35885 35.765C11.1072 37.6367 13.2216 39.1289 15.5708 40.1492C17.92 41.1695 20.4539 41.696 23.0151 41.696C25.5763 41.696 28.1102 41.1695 30.4594 40.1492C32.8086 39.1289 34.923 37.6367 36.6714 35.765C34.923 33.8934 32.8086 32.4011 30.4594 31.3808C28.1102 30.3605 25.5763 29.8341 23.0151 29.8341C20.4539 29.8341 17.92 30.3605 15.5708 31.3808C13.2216 32.4011 11.1072 33.8934 9.35885 35.765Z" fill="#25376E"/>
<path d="M23.0007 44.5625C18.1028 44.5658 13.3497 42.9014 9.52371 39.8434C5.69773 36.7853 3.02688 32.5158 1.95074 27.7376C0.874601 22.9593 1.4573 17.9571 3.60294 13.5541C5.74858 9.15118 9.32929 5.60991 13.7557 3.51317C18.1822 1.41643 23.1906 0.889175 27.9566 2.01818C32.7227 3.14718 36.9623 5.86515 39.9778 9.72477C42.9933 13.5844 44.6049 18.3556 44.5474 23.2532C44.4898 28.1508 42.7666 32.8829 39.6614 36.6706C37.6403 39.1358 35.0979 41.1222 32.217 42.4869C29.3361 43.8515 26.1885 44.5604 23.0007 44.5625ZM23.0007 4.31252C19.3047 4.31252 15.6916 5.40852 12.6185 7.46193C9.54536 9.51534 7.15014 12.4339 5.73573 15.8486C4.32131 19.2633 3.95124 23.0207 4.6723 26.6458C5.39336 30.2708 7.17317 33.6006 9.78667 36.2141C12.4002 38.8276 15.73 40.6074 19.355 41.3284C22.98 42.0495 26.7374 41.6794 30.1521 40.265C33.5668 38.8506 36.4854 36.4554 38.5388 33.3822C40.5922 30.3091 41.6882 26.6961 41.6882 23C41.6882 18.0438 39.7194 13.2905 36.2148 9.78596C32.7102 6.28137 27.957 4.31252 23.0007 4.31252Z" fill="#25376E"/>
<path d="M7.44697 35.765C7.44697 35.765 21.9226 51.9369 36.657 37.375L38.5545 35.765C38.5545 35.765 26.2495 23 13.7576 30.6619L7.44697 35.765Z" fill="#25376E"/>
<path d="M23.0007 23C26.9703 23 30.1882 19.7821 30.1882 15.8125C30.1882 11.843 26.9703 8.62502 23.0007 8.62502C19.0312 8.62502 15.8132 11.843 15.8132 15.8125C15.8132 19.7821 19.0312 23 23.0007 23Z" fill="#25376E"/>
</g>
</svg>
