<svg width="124" height="30" viewBox="0 0 124 30" fill="none" xmlns="http://www.w3.org/2000/svg">
<path fill-rule="evenodd" clip-rule="evenodd" d="M34.9229 0H35.3705C37.92 0.0623696 40.2616 0.758689 42.395 2.08896C46.326 4.53992 48.8107 8.75113 49.297 13.3045C49.6254 16.3803 49.0932 19.3101 47.7003 22.094C47.5758 22.3424 47.4411 22.5893 47.2961 22.8349C45.7373 25.4738 43.4326 27.6247 40.6327 28.843C37.9959 29.9905 35.0637 30.3116 32.2355 29.6841C27.8136 28.7031 24.2076 25.6272 22.3226 21.5419C20.3124 17.1858 20.4308 12.0289 22.6593 7.77555C24.0664 5.08902 26.2392 2.88712 28.9363 1.49898C30.7852 0.547139 32.7807 0.0474795 34.9229 0ZM35.1442 22.4741C37.0268 22.4741 38.8322 21.6867 40.1634 20.2852C41.4946 18.8837 42.2425 16.9828 42.2425 15.0007C42.2425 13.0187 41.4946 11.1178 40.1634 9.71624C38.8322 8.31471 37.0268 7.52733 35.1442 7.52733C33.2616 7.52733 31.4561 8.31471 30.1249 9.71624C28.7937 11.1178 28.0458 13.0187 28.0458 15.0007C28.0458 16.9828 28.7937 18.8837 30.1249 20.2852C31.4561 21.6867 33.2616 22.4741 35.1442 22.4741ZM51.3502 21.7015C51.4337 21.5273 51.5135 21.3563 51.5896 21.1882C51.597 21.172 51.609 21.1582 51.6241 21.1485C51.6391 21.1388 51.6567 21.1336 51.6747 21.1335C53.8105 21.1304 55.9649 21.1311 58.138 21.1356C58.4493 21.1361 58.7311 21.1235 58.9834 21.0976C59.684 21.0254 60.3483 20.8223 60.9762 20.4883C65.002 18.345 65.2793 12.4928 61.5485 9.91284C60.772 9.37596 59.9175 9.05765 58.985 8.95791C58.7668 8.93459 58.4844 8.92293 58.138 8.92293C56.0059 8.92265 53.8717 8.92251 51.7354 8.92251C51.7167 8.92253 51.6983 8.91702 51.6826 8.90668C51.667 8.89634 51.6547 8.88162 51.6473 8.86436C50.7764 6.80869 49.5266 5.03635 47.898 3.54735C47.6157 3.28944 47.3104 3.03688 46.9823 2.78965C46.9663 2.77757 46.9682 2.77195 46.9882 2.77279C47.0483 2.77504 47.1055 2.77265 47.1597 2.76562L58.2952 2.769C58.6509 2.769 58.9318 2.77616 59.138 2.79049C64.6586 3.17018 68.9718 7.53142 69.8584 12.896C70.1225 14.4949 70.0916 16.0805 69.7657 17.653C68.6936 22.8225 64.4453 26.9233 59.0955 27.2668C58.8932 27.2797 58.6125 27.2863 58.2535 27.2866C54.4658 27.2871 50.6532 27.2873 46.8158 27.287C46.7613 27.287 46.7575 27.2732 46.8044 27.2457C46.8626 27.2114 46.9168 27.1747 46.9671 27.1357C48.8525 25.6728 50.3136 23.8614 51.3502 21.7015ZM17.4618 21.4301H5.86822C5.86319 21.4301 5.85837 21.4281 5.85481 21.4245C5.85125 21.421 5.84926 21.4162 5.84926 21.4111V3.08459C5.84926 3.0821 5.84876 3.07963 5.84781 3.07733C5.84686 3.07503 5.84546 3.07294 5.8437 3.07118C5.84194 3.06942 5.83985 3.06802 5.83755 3.06707C5.83525 3.06612 5.83278 3.06562 5.83029 3.06562H0.0189637C0.0139342 3.06562 0.00911073 3.06762 0.00555435 3.07118C0.00199796 3.07474 0 3.07956 0 3.08459V27.5655C0 27.5705 0.00199796 27.5753 0.00555435 27.5789C0.00731529 27.5807 0.00940584 27.5821 0.0117066 27.583C0.0140074 27.584 0.0164734 27.5845 0.0189637 27.5845H17.4618C17.4668 27.5845 17.4716 27.5825 17.4752 27.5789C17.4788 27.5753 17.4808 27.5705 17.4808 27.5655V21.4491C17.4808 21.444 17.4788 21.4392 17.4752 21.4356C17.4716 21.4321 17.4668 21.4301 17.4618 21.4301ZM80.268 18.8087V27.9505C80.268 27.9559 80.2658 27.9612 80.2618 27.9651C80.2579 27.9689 80.2525 27.9711 80.2469 27.9711H74.4504C74.442 27.9711 74.4339 27.9678 74.428 27.9619C74.4221 27.9559 74.4188 27.9479 74.4188 27.9395V3.46831C74.4188 3.45454 74.4258 3.44766 74.4398 3.44766H80.2474C80.2611 3.44766 80.268 3.45454 80.268 3.46831V12.6033C80.268 12.6202 80.2764 12.6288 80.2933 12.629C82.24 12.6316 84.1484 12.6327 86.0187 12.6324C89.1443 12.632 91.5405 10.1629 91.8355 7.13252C91.8574 6.90776 91.8678 6.6382 91.8666 6.32382C91.8638 5.34389 91.8637 4.39191 91.8662 3.46788C91.8662 3.46523 91.8668 3.4626 91.8678 3.46014C91.8688 3.45769 91.8704 3.45546 91.8723 3.45358C91.8742 3.4517 91.8765 3.45021 91.879 3.4492C91.8815 3.44818 91.8842 3.44766 91.8869 3.44766H97.6839C97.7049 3.44766 97.7155 3.45805 97.7155 3.47884C97.7121 4.29105 97.7125 5.18333 97.7167 6.15568C97.7181 6.48719 97.7122 6.76757 97.699 6.99682C97.6544 7.77391 97.5159 8.58907 97.2835 9.4423C96.8615 10.9903 96.246 12.4096 95.4369 13.7003C95.0545 14.3102 94.6393 14.8442 94.1912 15.3021C94.0625 15.4336 93.9326 15.562 93.8014 15.6873C93.7879 15.6999 93.7879 15.7127 93.8014 15.7256C94.6745 16.5592 95.3766 17.5714 95.9502 18.6443C96.6612 19.974 97.1683 21.3432 97.4715 22.7519C97.6468 23.5665 97.7193 24.3528 97.7163 25.1704C97.7127 26.1925 97.7127 27.1175 97.7163 27.9454C97.7163 27.9498 97.7152 27.9541 97.7131 27.9579C97.7119 27.96 97.7105 27.9619 97.7088 27.9636C97.704 27.9684 97.6974 27.9711 97.6906 27.9711H91.889C91.8824 27.9711 91.8761 27.9685 91.8714 27.9638C91.8667 27.9592 91.8641 27.9529 91.8641 27.9463C91.8675 26.907 91.8669 25.8798 91.8624 24.8644C91.8498 21.8694 89.7402 19.1816 86.682 18.8196C86.4704 18.7946 86.1923 18.7826 85.8476 18.7834C83.9385 18.7871 82.087 18.7873 80.2929 18.7843C80.2763 18.784 80.268 18.7921 80.268 18.8087ZM123.931 6.80676V3.44808L118.113 3.44766C118.103 3.44766 118.094 3.45134 118.088 3.4579C118.081 3.46446 118.078 3.47336 118.078 3.48263C118.079 4.50077 118.079 5.51217 118.078 6.51683C118.076 7.58975 117.827 8.59146 117.331 9.52195C115.98 12.053 113.062 13.2865 110.331 12.2759C108.187 11.4824 106.759 9.43809 106.519 7.20332C106.493 6.95356 106.48 6.67584 106.481 6.37018C106.485 5.44868 106.486 4.48476 106.483 3.47842C106.483 3.45791 106.473 3.44766 106.452 3.44766H100.661C100.653 3.44766 100.646 3.4505 100.641 3.45556C100.636 3.46061 100.633 3.46747 100.633 3.47463C100.63 4.57986 100.631 5.63846 100.635 6.65042C100.644 8.69386 101.277 10.7516 102.286 12.5368C103.833 15.2743 106.317 17.5369 109.328 18.3923C109.346 18.3974 109.355 18.4093 109.355 18.4282V27.9479C109.355 27.9541 109.358 27.96 109.362 27.9643C109.366 27.9687 109.372 27.9711 109.378 27.9711H115.177C115.197 27.9711 115.207 27.9609 115.207 27.9404V18.4185C115.207 18.4053 115.214 18.3968 115.226 18.3932C118.336 17.5149 120.875 15.1335 122.399 12.3138C123.116 10.9886 123.588 9.58853 123.815 8.11357C123.868 7.77167 123.907 7.33606 123.931 6.80676Z" fill="#4874FF"/>
</svg>
