<svg width="680" height="680" viewBox="0 0 680 680" fill="none" xmlns="http://www.w3.org/2000/svg">
<circle cx="677.5" cy="377.5" r="2.5" transform="rotate(90 677.5 377.5)" fill="#29AAF3"/>
<circle cx="677.5" cy="452.5" r="2.5" transform="rotate(90 677.5 452.5)" fill="#29AAF3"/>
<circle cx="677.5" cy="527.5" r="2.5" transform="rotate(90 677.5 527.5)" fill="#29AAF3"/>
<circle cx="677.5" cy="602.5" r="2.5" transform="rotate(90 677.5 602.5)" fill="#29AAF3"/>
<circle cx="677.5" cy="677.5" r="2.5" transform="rotate(90 677.5 677.5)" fill="#29AAF3"/>
<circle cx="602.5" cy="377.5" r="2.5" transform="rotate(90 602.5 377.5)" fill="#29AAF3"/>
<circle cx="602.5" cy="452.5" r="2.5" transform="rotate(90 602.5 452.5)" fill="#29AAF3"/>
<circle cx="602.5" cy="527.5" r="2.5" transform="rotate(90 602.5 527.5)" fill="#29AAF3"/>
<circle cx="602.5" cy="602.5" r="2.5" transform="rotate(90 602.5 602.5)" fill="#29AAF3"/>
<circle cx="602.5" cy="677.5" r="2.5" transform="rotate(90 602.5 677.5)" fill="#29AAF3"/>
<circle cx="527.5" cy="377.5" r="2.5" transform="rotate(90 527.5 377.5)" fill="#29AAF3"/>
<circle cx="527.5" cy="452.5" r="2.5" transform="rotate(90 527.5 452.5)" fill="#29AAF3"/>
<circle cx="527.5" cy="527.5" r="2.5" transform="rotate(90 527.5 527.5)" fill="#29AAF3"/>
<circle cx="527.5" cy="602.5" r="2.5" transform="rotate(90 527.5 602.5)" fill="#29AAF3"/>
<circle cx="527.5" cy="677.5" r="2.5" transform="rotate(90 527.5 677.5)" fill="#29AAF3"/>
<circle cx="452.5" cy="377.5" r="2.5" transform="rotate(90 452.5 377.5)" fill="#29AAF3"/>
<circle cx="452.5" cy="452.5" r="2.5" transform="rotate(90 452.5 452.5)" fill="#29AAF3"/>
<circle cx="452.5" cy="527.5" r="2.5" transform="rotate(90 452.5 527.5)" fill="#29AAF3"/>
<circle cx="452.5" cy="602.5" r="2.5" transform="rotate(90 452.5 602.5)" fill="#29AAF3"/>
<circle cx="452.5" cy="677.5" r="2.5" transform="rotate(90 452.5 677.5)" fill="#29AAF3"/>
<circle cx="377.5" cy="377.5" r="2.5" transform="rotate(90 377.5 377.5)" fill="#29AAF3"/>
<circle cx="377.5" cy="452.5" r="2.5" transform="rotate(90 377.5 452.5)" fill="#29AAF3"/>
<circle cx="377.5" cy="527.5" r="2.5" transform="rotate(90 377.5 527.5)" fill="#29AAF3"/>
<circle cx="377.5" cy="602.5" r="2.5" transform="rotate(90 377.5 602.5)" fill="#29AAF3"/>
<circle cx="377.5" cy="677.5" r="2.5" transform="rotate(90 377.5 677.5)" fill="#29AAF3"/>
<circle cx="302.5" cy="377.5" r="2.5" transform="rotate(90 302.5 377.5)" fill="#29AAF3"/>
<circle cx="302.5" cy="452.5" r="2.5" transform="rotate(90 302.5 452.5)" fill="#29AAF3"/>
<circle cx="302.5" cy="527.5" r="2.5" transform="rotate(90 302.5 527.5)" fill="#29AAF3"/>
<circle cx="302.5" cy="602.5" r="2.5" transform="rotate(90 302.5 602.5)" fill="#29AAF3"/>
<circle cx="302.5" cy="677.5" r="2.5" transform="rotate(90 302.5 677.5)" fill="#29AAF3"/>
<circle cx="227.5" cy="377.5" r="2.5" transform="rotate(90 227.5 377.5)" fill="#29AAF3"/>
<circle cx="227.5" cy="452.5" r="2.5" transform="rotate(90 227.5 452.5)" fill="#29AAF3"/>
<circle cx="227.5" cy="527.5" r="2.5" transform="rotate(90 227.5 527.5)" fill="#29AAF3"/>
<circle cx="227.5" cy="602.5" r="2.5" transform="rotate(90 227.5 602.5)" fill="#29AAF3"/>
<circle cx="227.5" cy="677.5" r="2.5" transform="rotate(90 227.5 677.5)" fill="#29AAF3"/>
<circle cx="152.5" cy="377.5" r="2.5" transform="rotate(90 152.5 377.5)" fill="#29AAF3"/>
<circle cx="152.5" cy="452.5" r="2.5" transform="rotate(90 152.5 452.5)" fill="#29AAF3"/>
<circle cx="152.5" cy="527.5" r="2.5" transform="rotate(90 152.5 527.5)" fill="#29AAF3"/>
<circle cx="152.5" cy="602.5" r="2.5" transform="rotate(90 152.5 602.5)" fill="#29AAF3"/>
<circle cx="152.5" cy="677.5" r="2.5" transform="rotate(90 152.5 677.5)" fill="#29AAF3"/>
<circle cx="77.5" cy="377.5" r="2.5" transform="rotate(90 77.5 377.5)" fill="#29AAF3"/>
<circle cx="77.5" cy="452.5" r="2.5" transform="rotate(90 77.5 452.5)" fill="#29AAF3"/>
<circle cx="77.5" cy="527.5" r="2.5" transform="rotate(90 77.5 527.5)" fill="#29AAF3"/>
<circle cx="77.5" cy="602.5" r="2.5" transform="rotate(90 77.5 602.5)" fill="#29AAF3"/>
<circle cx="77.5" cy="677.5" r="2.5" transform="rotate(90 77.5 677.5)" fill="#29AAF3"/>
<circle cx="2.5" cy="377.5" r="2.5" transform="rotate(90 2.5 377.5)" fill="#29AAF3"/>
<circle cx="2.5" cy="452.5" r="2.5" transform="rotate(90 2.5 452.5)" fill="#29AAF3"/>
<circle cx="2.5" cy="527.5" r="2.5" transform="rotate(90 2.5 527.5)" fill="#29AAF3"/>
<circle cx="2.5" cy="602.5" r="2.5" transform="rotate(90 2.5 602.5)" fill="#29AAF3"/>
<circle cx="2.5" cy="677.5" r="2.5" transform="rotate(90 2.5 677.5)" fill="#29AAF3"/>
<circle cx="677.5" cy="2.5" r="2.5" transform="rotate(90 677.5 2.5)" fill="#29AAF3"/>
<circle cx="677.5" cy="77.5" r="2.5" transform="rotate(90 677.5 77.5)" fill="#29AAF3"/>
<circle cx="677.5" cy="152.5" r="2.5" transform="rotate(90 677.5 152.5)" fill="#29AAF3"/>
<circle cx="677.5" cy="227.5" r="2.5" transform="rotate(90 677.5 227.5)" fill="#29AAF3"/>
<circle cx="677.5" cy="302.5" r="2.5" transform="rotate(90 677.5 302.5)" fill="#29AAF3"/>
<circle cx="602.5" cy="2.5" r="2.5" transform="rotate(90 602.5 2.5)" fill="#29AAF3"/>
<circle cx="602.5" cy="77.5" r="2.5" transform="rotate(90 602.5 77.5)" fill="#29AAF3"/>
<circle cx="602.5" cy="152.5" r="2.5" transform="rotate(90 602.5 152.5)" fill="#29AAF3"/>
<circle cx="602.5" cy="227.5" r="2.5" transform="rotate(90 602.5 227.5)" fill="#29AAF3"/>
<circle cx="602.5" cy="302.5" r="2.5" transform="rotate(90 602.5 302.5)" fill="#29AAF3"/>
<circle cx="527.5" cy="2.5" r="2.5" transform="rotate(90 527.5 2.5)" fill="#29AAF3"/>
<circle cx="527.5" cy="77.5" r="2.5" transform="rotate(90 527.5 77.5)" fill="#29AAF3"/>
<circle cx="527.5" cy="152.5" r="2.5" transform="rotate(90 527.5 152.5)" fill="#29AAF3"/>
<circle cx="527.5" cy="227.5" r="2.5" transform="rotate(90 527.5 227.5)" fill="#29AAF3"/>
<circle cx="527.5" cy="302.5" r="2.5" transform="rotate(90 527.5 302.5)" fill="#29AAF3"/>
<circle cx="452.5" cy="2.5" r="2.5" transform="rotate(90 452.5 2.5)" fill="#29AAF3"/>
<circle cx="452.5" cy="77.5" r="2.5" transform="rotate(90 452.5 77.5)" fill="#29AAF3"/>
<circle cx="452.5" cy="152.5" r="2.5" transform="rotate(90 452.5 152.5)" fill="#29AAF3"/>
<circle cx="452.5" cy="227.5" r="2.5" transform="rotate(90 452.5 227.5)" fill="#29AAF3"/>
<circle cx="452.5" cy="302.5" r="2.5" transform="rotate(90 452.5 302.5)" fill="#29AAF3"/>
<circle cx="377.5" cy="2.5" r="2.5" transform="rotate(90 377.5 2.5)" fill="#29AAF3"/>
<circle cx="377.5" cy="77.5" r="2.5" transform="rotate(90 377.5 77.5)" fill="#29AAF3"/>
<circle cx="377.5" cy="152.5" r="2.5" transform="rotate(90 377.5 152.5)" fill="#29AAF3"/>
<circle cx="377.5" cy="227.5" r="2.5" transform="rotate(90 377.5 227.5)" fill="#29AAF3"/>
<circle cx="377.5" cy="302.5" r="2.5" transform="rotate(90 377.5 302.5)" fill="#29AAF3"/>
<circle cx="302.5" cy="2.5" r="2.5" transform="rotate(90 302.5 2.5)" fill="#29AAF3"/>
<circle cx="302.5" cy="77.5" r="2.5" transform="rotate(90 302.5 77.5)" fill="#29AAF3"/>
<circle cx="302.5" cy="152.5" r="2.5" transform="rotate(90 302.5 152.5)" fill="#29AAF3"/>
<circle cx="302.5" cy="227.5" r="2.5" transform="rotate(90 302.5 227.5)" fill="#29AAF3"/>
<circle cx="302.5" cy="302.5" r="2.5" transform="rotate(90 302.5 302.5)" fill="#29AAF3"/>
<circle cx="227.5" cy="2.5" r="2.5" transform="rotate(90 227.5 2.5)" fill="#29AAF3"/>
<circle cx="227.5" cy="77.5" r="2.5" transform="rotate(90 227.5 77.5)" fill="#29AAF3"/>
<circle cx="227.5" cy="152.5" r="2.5" transform="rotate(90 227.5 152.5)" fill="#29AAF3"/>
<circle cx="227.5" cy="227.5" r="2.5" transform="rotate(90 227.5 227.5)" fill="#29AAF3"/>
<circle cx="227.5" cy="302.5" r="2.5" transform="rotate(90 227.5 302.5)" fill="#29AAF3"/>
<circle cx="152.5" cy="2.5" r="2.5" transform="rotate(90 152.5 2.5)" fill="#29AAF3"/>
<circle cx="152.5" cy="77.5" r="2.5" transform="rotate(90 152.5 77.5)" fill="#29AAF3"/>
<circle cx="152.5" cy="152.5" r="2.5" transform="rotate(90 152.5 152.5)" fill="#29AAF3"/>
<circle cx="152.5" cy="227.5" r="2.5" transform="rotate(90 152.5 227.5)" fill="#29AAF3"/>
<circle cx="152.5" cy="302.5" r="2.5" transform="rotate(90 152.5 302.5)" fill="#29AAF3"/>
<circle cx="77.5" cy="2.5" r="2.5" transform="rotate(90 77.5 2.5)" fill="#29AAF3"/>
<circle cx="77.5" cy="77.5" r="2.5" transform="rotate(90 77.5 77.5)" fill="#29AAF3"/>
<circle cx="77.5" cy="152.5" r="2.5" transform="rotate(90 77.5 152.5)" fill="#29AAF3"/>
<circle cx="77.5" cy="227.5" r="2.5" transform="rotate(90 77.5 227.5)" fill="#29AAF3"/>
<circle cx="77.5" cy="302.5" r="2.5" transform="rotate(90 77.5 302.5)" fill="#29AAF3"/>
<circle cx="2.5" cy="2.5" r="2.5" transform="rotate(90 2.5 2.5)" fill="#29AAF3"/>
<circle cx="2.5" cy="77.5" r="2.5" transform="rotate(90 2.5 77.5)" fill="#29AAF3"/>
<circle cx="2.5" cy="152.5" r="2.5" transform="rotate(90 2.5 152.5)" fill="#29AAF3"/>
<circle cx="2.5" cy="227.5" r="2.5" transform="rotate(90 2.5 227.5)" fill="#29AAF3"/>
<circle cx="2.5" cy="302.5" r="2.5" transform="rotate(90 2.5 302.5)" fill="#29AAF3"/>
</svg>
