<svg width="455" height="305" viewBox="0 0 455 305" fill="none" xmlns="http://www.w3.org/2000/svg">
<circle cx="452.5" cy="77.5" r="2.5" transform="rotate(90 452.5 77.5)" fill="#2ADAFF"/>
<circle cx="452.5" cy="152.5" r="2.5" transform="rotate(90 452.5 152.5)" fill="#2ADAFF"/>
<circle cx="452.5" cy="227.5" r="2.5" transform="rotate(90 452.5 227.5)" fill="#2ADAFF"/>
<circle cx="452.5" cy="302.5" r="2.5" transform="rotate(90 452.5 302.5)" fill="#2ADAFF"/>
<circle cx="377.5" cy="2.5" r="2.5" transform="rotate(90 377.5 2.5)" fill="#2ADAFF"/>
<circle cx="377.5" cy="77.5" r="2.5" transform="rotate(90 377.5 77.5)" fill="#2ADAFF"/>
<circle cx="377.5" cy="152.5" r="2.5" transform="rotate(90 377.5 152.5)" fill="#2ADAFF"/>
<circle cx="377.5" cy="227.5" r="2.5" transform="rotate(90 377.5 227.5)" fill="#2ADAFF"/>
<circle cx="377.5" cy="302.5" r="2.5" transform="rotate(90 377.5 302.5)" fill="#2ADAFF"/>
<circle cx="302.5" cy="2.5" r="2.5" transform="rotate(90 302.5 2.5)" fill="#2ADAFF"/>
<circle cx="302.5" cy="77.5" r="2.5" transform="rotate(90 302.5 77.5)" fill="#2ADAFF"/>
<circle cx="302.5" cy="152.5" r="2.5" transform="rotate(90 302.5 152.5)" fill="#2ADAFF"/>
<circle cx="302.5" cy="227.5" r="2.5" transform="rotate(90 302.5 227.5)" fill="#2ADAFF"/>
<circle cx="302.5" cy="302.5" r="2.5" transform="rotate(90 302.5 302.5)" fill="#2ADAFF"/>
<circle cx="227.5" cy="2.5" r="2.5" transform="rotate(90 227.5 2.5)" fill="#2ADAFF"/>
<circle cx="227.5" cy="77.5" r="2.5" transform="rotate(90 227.5 77.5)" fill="#2ADAFF"/>
<circle cx="227.5" cy="152.5" r="2.5" transform="rotate(90 227.5 152.5)" fill="#2ADAFF"/>
<circle cx="227.5" cy="227.5" r="2.5" transform="rotate(90 227.5 227.5)" fill="#2ADAFF"/>
<circle cx="227.5" cy="302.5" r="2.5" transform="rotate(90 227.5 302.5)" fill="#2ADAFF"/>
<circle cx="152.5" cy="2.5" r="2.5" transform="rotate(90 152.5 2.5)" fill="#2ADAFF"/>
<circle cx="152.5" cy="77.5" r="2.5" transform="rotate(90 152.5 77.5)" fill="#2ADAFF"/>
<circle cx="152.5" cy="152.5" r="2.5" transform="rotate(90 152.5 152.5)" fill="#2ADAFF"/>
<circle cx="152.5" cy="227.5" r="2.5" transform="rotate(90 152.5 227.5)" fill="#2ADAFF"/>
<circle cx="152.5" cy="302.5" r="2.5" transform="rotate(90 152.5 302.5)" fill="#2ADAFF"/>
<circle cx="77.5" cy="2.5" r="2.5" transform="rotate(90 77.5 2.5)" fill="#2ADAFF"/>
<circle cx="77.5" cy="77.5" r="2.5" transform="rotate(90 77.5 77.5)" fill="#2ADAFF"/>
<circle cx="77.5" cy="152.5" r="2.5" transform="rotate(90 77.5 152.5)" fill="#2ADAFF"/>
<circle cx="77.5" cy="227.5" r="2.5" transform="rotate(90 77.5 227.5)" fill="#2ADAFF"/>
<circle cx="77.5" cy="302.5" r="2.5" transform="rotate(90 77.5 302.5)" fill="#2ADAFF"/>
<circle cx="2.5" cy="2.5" r="2.5" transform="rotate(90 2.5 2.5)" fill="#2ADAFF"/>
<circle cx="2.5" cy="77.5" r="2.5" transform="rotate(90 2.5 77.5)" fill="#2ADAFF"/>
<circle cx="2.5" cy="152.5" r="2.5" transform="rotate(90 2.5 152.5)" fill="#2ADAFF"/>
<circle cx="2.5" cy="227.5" r="2.5" transform="rotate(90 2.5 227.5)" fill="#2ADAFF"/>
<circle cx="2.5" cy="302.5" r="2.5" transform="rotate(90 2.5 302.5)" fill="#2ADAFF"/>
</svg>
