<svg width="214" height="52" viewBox="0 0 214 52" fill="none" xmlns="http://www.w3.org/2000/svg">
<path fill-rule="evenodd" clip-rule="evenodd" d="M60.3037 0H61.0765C65.479 0.108107 69.5223 1.31506 73.2063 3.62086C79.9942 7.86919 84.2846 15.1686 85.1244 23.0612C85.6915 28.3925 84.7724 33.4709 82.3671 38.2963C82.1522 38.7267 81.9196 39.1548 81.6693 39.5804C78.9776 44.1545 74.9979 47.8828 70.1631 49.9945C65.61 51.9835 60.5467 52.5401 55.6632 51.4525C48.0276 49.752 41.8008 44.4204 38.5459 37.3394C35.0748 29.7887 35.2793 20.8501 39.1273 13.4776C41.557 8.82097 45.309 5.00434 49.9662 2.59823C53.1588 0.948373 56.6046 0.0822979 60.3037 0ZM60.6857 38.9551C63.9365 38.9551 67.0542 37.5904 69.3528 35.161C71.6515 32.7317 72.9429 29.4368 72.9429 26.0013C72.9429 22.5657 71.6515 19.2708 69.3528 16.8415C67.0542 14.4122 63.9365 13.0474 60.6857 13.0474C57.4349 13.0474 54.3173 14.4122 52.0186 16.8415C49.7199 19.2708 48.4286 22.5657 48.4286 26.0013C48.4286 29.4368 49.7199 32.7317 52.0186 35.161C54.3173 37.5904 57.4349 38.9551 60.6857 38.9551Z" fill="white"/>
<path d="M88.6698 37.616C88.8139 37.3141 88.9517 37.0175 89.0832 36.7263C89.096 36.6981 89.1166 36.6742 89.1426 36.6574C89.1687 36.6405 89.1991 36.6315 89.2302 36.6313C92.9181 36.626 96.6383 36.6272 100.391 36.635C100.928 36.636 101.415 36.614 101.85 36.5692C103.06 36.4441 104.207 36.092 105.292 35.513C112.243 31.7979 112.722 21.6541 106.28 17.1823C104.939 16.2517 103.463 15.6999 101.853 15.527C101.476 15.4866 100.989 15.4664 100.391 15.4664C96.7091 15.4659 93.0238 15.4657 89.3349 15.4657C89.3025 15.4657 89.2708 15.4562 89.2438 15.4382C89.2168 15.4203 89.1956 15.3948 89.1829 15.3649C87.679 11.8017 85.5209 8.72968 82.7086 6.14874C82.2211 5.7017 81.694 5.26392 81.1274 4.83539C81.0997 4.81445 81.1031 4.80471 81.1376 4.80617C81.2414 4.81006 81.3401 4.80592 81.4337 4.79375L100.662 4.79959C101.276 4.79959 101.761 4.81201 102.117 4.83685C111.65 5.49499 119.098 13.0545 120.629 22.3531C121.085 25.1245 121.032 27.8729 120.469 30.5985C118.618 39.559 111.282 46.667 102.044 47.2624C101.695 47.2848 101.21 47.2962 100.59 47.2967C94.0496 47.2977 87.4662 47.2979 80.8399 47.2974C80.7458 47.2974 80.7393 47.2736 80.8203 47.2258C80.9207 47.1664 81.0143 47.1029 81.1012 47.0352C84.3568 44.4995 86.8797 41.3598 88.6698 37.616Z" fill="white"/>
<path d="M30.1524 37.1455H10.133C10.1244 37.1455 10.116 37.142 10.1099 37.1359C10.1037 37.1297 10.1003 37.1213 10.1003 37.1126V5.34662C10.1003 5.3423 10.0994 5.33803 10.0978 5.33404C10.0962 5.33005 10.0937 5.32643 10.0907 5.32338C10.0877 5.32033 10.0841 5.3179 10.0801 5.31625C10.0761 5.3146 10.0718 5.31375 10.0675 5.31375H0.0327459C0.0240612 5.31375 0.0157321 5.31721 0.00959105 5.32338C0.00345001 5.32954 0 5.3379 0 5.34662V47.7802C0 47.7889 0.00345001 47.7973 0.00959105 47.8034C0.0126318 47.8065 0.0162417 47.8089 0.0202146 47.8105C0.0241875 47.8122 0.0284457 47.8131 0.0327459 47.8131H30.1524C30.1611 47.8131 30.1694 47.8096 30.1756 47.8034C30.1817 47.7973 30.1852 47.7889 30.1852 47.7802V37.1784C30.1852 37.1697 30.1817 37.1613 30.1756 37.1551C30.1694 37.149 30.1611 37.1455 30.1524 37.1455Z" fill="white"/>
<path d="M138.604 32.6017V48.4475C138.604 48.457 138.6 48.4661 138.593 48.4728C138.587 48.4795 138.577 48.4833 138.568 48.4833H128.558C128.544 48.4833 128.53 48.4775 128.52 48.4672C128.509 48.457 128.504 48.443 128.504 48.4285V6.01173C128.504 5.98787 128.516 5.97594 128.54 5.97594H138.568C138.592 5.97594 138.604 5.98787 138.604 6.01173V21.8458C138.604 21.875 138.619 21.8899 138.648 21.8903C142.009 21.8947 145.305 21.8967 148.534 21.8962C153.931 21.8955 158.069 17.6157 158.578 12.363C158.616 11.9735 158.634 11.5062 158.632 10.9613C158.627 9.26274 158.627 7.61264 158.631 6.011C158.631 6.00639 158.632 6.00184 158.634 5.99758C158.636 5.99333 158.639 5.98946 158.642 5.98621C158.645 5.98295 158.649 5.98037 158.653 5.97861C158.658 5.97684 158.662 5.97594 158.667 5.97594H168.677C168.714 5.97594 168.732 5.99396 168.732 6.02999C168.726 7.43782 168.727 8.98444 168.734 10.6698C168.736 11.2445 168.726 11.7305 168.703 12.1278C168.626 13.4748 168.387 14.8877 167.986 16.3667C167.257 19.0499 166.194 21.51 164.797 23.7472C164.137 24.8044 163.42 25.7299 162.646 26.5236C162.424 26.7515 162.2 26.9741 161.973 27.1913C161.95 27.2132 161.95 27.2353 161.973 27.2577C163.481 28.7026 164.693 30.4571 165.683 32.3169C166.911 34.6217 167.787 36.9949 168.31 39.4366C168.613 40.8486 168.738 42.2116 168.733 43.6287C168.727 45.4003 168.727 47.0036 168.733 48.4387C168.733 48.4463 168.731 48.4538 168.728 48.4603C168.726 48.4639 168.723 48.4673 168.72 48.4702C168.712 48.4786 168.701 48.4833 168.689 48.4833H158.671C158.659 48.4833 158.648 48.4787 158.64 48.4707C158.632 48.4626 158.628 48.4516 158.628 48.4402C158.634 46.6389 158.633 44.8583 158.625 43.0984C158.603 37.907 154.96 33.2482 149.679 32.6207C149.314 32.5774 148.834 32.5564 148.239 32.5579C144.942 32.5642 141.745 32.5647 138.647 32.5594C138.618 32.5589 138.604 32.573 138.604 32.6017Z" fill="white"/>
<path d="M214 11.7984V5.97667L203.953 5.97594C203.937 5.97594 203.921 5.98233 203.91 5.9937C203.899 6.00506 203.892 6.02049 203.892 6.03657C203.895 7.80134 203.896 9.55443 203.893 11.2958C203.89 13.1556 203.46 14.8919 202.603 16.5047C200.271 20.8918 195.232 23.0299 190.516 21.2782C186.813 19.9028 184.348 16.3593 183.934 12.4857C183.888 12.0528 183.866 11.5715 183.868 11.0416C183.875 9.44438 183.876 7.77359 183.871 6.02926C183.871 5.99371 183.853 5.97594 183.818 5.97594H173.817C173.805 5.97594 173.793 5.98086 173.784 5.98963C173.775 5.9984 173.77 6.01029 173.77 6.02269C173.764 7.93843 173.766 9.77333 173.773 11.5274C173.789 15.0694 174.881 18.6362 176.623 21.7304C179.294 26.4754 183.585 30.3972 188.784 31.88C188.815 31.8888 188.831 31.9095 188.831 31.9421V48.4431C188.831 48.4538 188.835 48.464 188.842 48.4715C188.85 48.479 188.86 48.4833 188.871 48.4833H198.883C198.918 48.4833 198.936 48.4655 198.936 48.43V31.9253C198.936 31.9024 198.947 31.8878 198.969 31.8815C204.338 30.3592 208.722 26.2314 211.355 21.344C212.592 19.0469 213.407 16.6201 213.8 14.0635C213.891 13.4709 213.958 12.7158 214 11.7984Z" fill="white"/>
</svg>
