<svg width="91" height="57" viewBox="0 0 91 57" fill="none" xmlns="http://www.w3.org/2000/svg">
<g clip-path="url(#clip0_464_1672)">
<path d="M26.8347 0H27.0158C27.415 0.0110387 27.8139 0.0267606 28.2127 0.0471655C31.7627 0.227799 35.1284 1.10588 38.3098 2.68141C42.2128 4.61469 45.5845 7.48978 48.1579 10.9936C50.5603 14.2641 52.2161 17.9152 53.1251 21.947C53.1996 22.2782 53.2656 22.6001 53.3232 22.9129C54.2167 27.789 53.9583 32.8327 52.454 37.5402C50.5552 43.4841 46.8582 48.6929 41.7782 52.2533C38.4515 54.5855 34.8009 56.0646 30.8266 56.6904C30.4856 56.7439 30.1517 56.7884 29.8247 56.8239C25.2969 57.3159 20.9572 56.6745 16.8055 54.8996C12.6805 53.1364 9.05039 50.2759 6.23052 46.7039C3.32833 43.0265 1.39204 38.6566 0.536901 34.0781C-0.346512 29.3495 -0.113352 24.6512 1.23638 19.9831C1.32818 19.6657 1.42946 19.3432 1.54022 19.0157C3.70451 12.6168 7.93632 7.13253 13.7048 3.68292C17.3758 1.48755 21.3427 0.27346 25.6054 0.0406426C25.805 0.0296039 26.011 0.0220775 26.2236 0.0180634C26.4274 0.0143838 26.6312 0.00836268 26.8347 0ZM26.9275 42.6933C28.6882 42.6933 30.4316 42.3261 32.0583 41.6126C33.685 40.8992 35.163 39.8534 36.408 38.5352C37.6529 37.2169 38.6405 35.6518 39.3143 33.9294C39.9881 32.2069 40.3349 30.3608 40.3349 28.4965C40.3349 24.7313 38.9223 21.1202 36.408 18.4578C33.8936 15.7954 30.4834 14.2997 26.9275 14.2997C23.3717 14.2997 19.9615 15.7954 17.4471 18.4578C14.9327 21.1202 13.5202 24.7313 13.5202 28.4965C13.5202 30.3608 13.867 32.2069 14.5407 33.9294C15.2145 35.6518 16.2021 37.2169 17.4471 38.5352C18.6921 39.8534 20.1701 40.8992 21.7968 41.6126C23.4234 42.3261 25.1668 42.6933 26.9275 42.6933Z" fill="white"/>
<path d="M54.5568 42.7389C54.7573 42.3208 54.9937 41.793 55.2657 41.1554C55.3958 40.8503 55.502 40.5745 55.5845 40.328C55.6279 40.199 55.6968 40.1463 55.8285 40.1463C59.9652 40.1467 64.102 40.1469 68.239 40.1469C70.7196 40.1469 73.1059 39.2432 75.0183 37.6385C78.7547 34.5041 80.0943 29.2491 78.5351 24.645C77.0993 20.4051 73.3669 17.2435 68.8497 16.9715C68.6425 16.9592 68.31 16.953 67.8524 16.953C63.8531 16.9536 59.8473 16.9535 55.835 16.9525C55.8104 16.9525 55.7866 16.944 55.7675 16.9286C55.7484 16.9132 55.7353 16.8917 55.7302 16.8677C55.7229 16.8329 55.7089 16.7882 55.6883 16.7337C54.0944 12.4821 51.7071 8.72895 48.5264 5.47419C48.4768 5.42335 48.3968 5.36548 48.2864 5.30059C48.2638 5.2872 48.2654 5.27934 48.2914 5.277C48.4484 5.26262 48.6042 5.25543 48.7589 5.25543C55.2172 5.2571 61.6041 5.2566 67.9197 5.25392C68.2567 5.25359 68.5863 5.25877 68.9086 5.26948C75.4224 5.48323 81.3405 8.71757 85.3114 13.8767C88.1003 17.4999 89.7328 21.8607 90.1359 26.4388C90.3225 28.5592 90.2242 30.7179 89.8411 32.915C89.7829 33.2485 89.7178 33.5733 89.646 33.8894C88.6818 38.1259 86.7618 41.7961 83.886 44.9C82.5556 46.3357 81.062 47.5716 79.4053 48.6075C76.1477 50.6437 72.6002 51.7195 68.7629 51.8349C68.5497 51.8412 68.2171 51.8444 67.7651 51.8444C61.3414 51.8427 54.9095 51.8416 48.4695 51.8409C48.3192 51.8409 48.1697 51.836 48.021 51.8263C47.9954 51.8247 47.9932 51.8166 48.0145 51.8022C48.1372 51.72 48.2485 51.6211 48.3503 51.5172C49.2699 50.5763 50.0951 49.6443 50.8259 48.7214C52.284 46.88 53.5277 44.8858 54.5568 42.7389Z" fill="white"/>
</g>
<defs>
<clipPath id="clip0_464_1672">
<rect width="91" height="57" fill="white"/>
</clipPath>
</defs>
</svg>
