<svg width="90" height="22" viewBox="0 0 90 22" fill="none" xmlns="http://www.w3.org/2000/svg">
<path fill-rule="evenodd" clip-rule="evenodd" d="M25.3629 0H25.6879C27.5394 0.0452928 29.2398 0.550961 30.7891 1.517C33.6438 3.29689 35.4482 6.35507 35.8013 9.66175C36.0398 11.8954 35.6533 14.023 34.6418 16.0447C34.5514 16.225 34.4536 16.4044 34.3483 16.5827C33.2163 18.4991 31.5426 20.061 29.5093 20.9458C27.5944 21.7791 25.4651 22.0123 23.4113 21.5566C20.2001 20.8442 17.5814 18.6105 16.2125 15.6438C14.7527 12.4803 14.8387 8.73539 16.457 5.64661C17.4788 3.69565 19.0567 2.09663 21.0154 1.08856C22.358 0.397332 23.8072 0.0344797 25.3629 0ZM25.5235 16.3207C26.8907 16.3207 28.2018 15.7489 29.1685 14.7311C30.1352 13.7133 30.6783 12.3329 30.6783 10.8935C30.6783 9.45416 30.1352 8.07373 29.1685 7.05594C28.2018 6.03814 26.8907 5.46635 25.5235 5.46635C24.1564 5.46635 22.8452 6.03814 21.8785 7.05594C20.9118 8.07373 20.3687 9.45416 20.3687 10.8935C20.3687 12.3329 20.9118 13.7133 21.8785 14.7311C22.8452 15.7489 24.1564 16.3207 25.5235 16.3207ZM37.2918 15.76C37.3524 15.6335 37.4103 15.5093 37.4656 15.3873C37.471 15.3755 37.4797 15.3654 37.4906 15.3584C37.5016 15.3513 37.5144 15.3475 37.5274 15.3475C39.0784 15.3452 40.643 15.3457 42.2211 15.349C42.4471 15.3494 42.6518 15.3402 42.835 15.3215C43.3438 15.269 43.8262 15.1215 44.2822 14.8789C47.2057 13.3225 47.4071 9.07258 44.6978 7.19905C44.1339 6.80917 43.5133 6.57801 42.8362 6.50558C42.6777 6.48865 42.4726 6.48018 42.2211 6.48018C40.6727 6.47998 39.1229 6.47987 37.5715 6.47987C37.5579 6.47988 37.5446 6.47589 37.5332 6.46838C37.5218 6.46087 37.5129 6.45018 37.5076 6.43764C36.8751 4.94481 35.9675 3.65774 34.7848 2.57643C34.5797 2.38914 34.3581 2.20572 34.1198 2.02618C34.1081 2.01741 34.1096 2.01333 34.1241 2.01394C34.1677 2.01557 34.2092 2.01384 34.2486 2.00874L42.3352 2.01119C42.5935 2.01119 42.7975 2.01639 42.9473 2.02679C46.9563 2.30253 50.0886 5.46966 50.7324 9.36546C50.9242 10.5265 50.9018 11.678 50.6651 12.82C49.8866 16.5741 46.8015 19.5521 42.9164 19.8015C42.7695 19.8109 42.5657 19.8157 42.3049 19.8159C39.5543 19.8163 36.7856 19.8164 33.9989 19.8162C33.9593 19.8162 33.9566 19.8062 33.9906 19.7862C34.0329 19.7613 34.0722 19.7347 34.1088 19.7063C35.4779 18.644 36.539 17.3285 37.2918 15.76ZM12.6808 15.5624H4.2615C4.25785 15.5624 4.25435 15.561 4.25177 15.5584C4.24918 15.5558 4.24773 15.5523 4.24773 15.5487V2.23992C4.24773 2.23811 4.24738 2.23632 4.24668 2.23465C4.24599 2.23298 4.24498 2.23146 4.2437 2.23018C4.24242 2.2289 4.2409 2.22789 4.23923 2.2272C4.23756 2.22651 4.23577 2.22615 4.23396 2.22615H0.0137715C0.010119 2.22615 0.00661622 2.2276 0.00403357 2.23018C0.00145092 2.23277 0 2.23627 0 2.23992V20.018C0 20.0216 0.00145092 20.0251 0.00403357 20.0277C0.00531237 20.029 0.00683052 20.03 0.00850136 20.0307C0.0101722 20.0314 0.011963 20.0317 0.0137715 20.0317H12.6808C12.6844 20.0317 12.6879 20.0303 12.6905 20.0277C12.6931 20.0251 12.6945 20.0216 12.6945 20.018V15.5762C12.6945 15.5726 12.6931 15.5691 12.6905 15.5665C12.6879 15.5639 12.6844 15.5624 12.6808 15.5624ZM58.2905 13.6589V20.2977C58.2905 20.3016 58.2889 20.3054 58.2861 20.3083C58.2832 20.3111 58.2793 20.3126 58.2752 20.3126H54.0658C54.0597 20.3126 54.0538 20.3102 54.0495 20.3059C54.0474 20.3038 54.0457 20.3012 54.0445 20.2984C54.0434 20.2957 54.0428 20.2927 54.0428 20.2897V2.51869C54.0428 2.50869 54.0479 2.50369 54.0581 2.50369H58.2755C58.2855 2.50369 58.2905 2.50869 58.2905 2.51869V9.15256C58.2905 9.1648 58.2967 9.17102 58.3089 9.17123C59.7226 9.17306 61.1085 9.17388 62.4667 9.17367C64.7365 9.17337 66.4766 7.38032 66.6908 5.17964C66.7067 5.01643 66.7143 4.82067 66.7135 4.59237C66.7114 3.88074 66.7113 3.18941 66.7132 2.51838C66.7132 2.51723 66.7133 2.51608 66.7136 2.51497C66.7138 2.51422 66.714 2.51348 66.7143 2.51276C66.7151 2.51098 66.7162 2.50936 66.7176 2.508C66.7184 2.50721 66.7192 2.50652 66.7202 2.50594L66.7224 2.50481C66.7242 2.50407 66.7262 2.50369 66.7282 2.50369H70.9379C70.9532 2.50369 70.9609 2.51124 70.9609 2.52634C70.9585 3.11617 70.9588 3.76414 70.9618 4.47026C70.9628 4.71101 70.9585 4.91462 70.949 5.0811C70.9165 5.64543 70.8159 6.23739 70.6472 6.85701C70.3408 7.98117 69.8938 9.01189 69.3062 9.94916C69.0285 10.3921 68.727 10.7798 68.4015 11.1124C68.3081 11.2079 68.2137 11.3011 68.1185 11.3921C68.1087 11.4013 68.1087 11.4106 68.1185 11.42C68.7526 12.0253 69.2624 12.7604 69.6789 13.5395C70.1953 14.5052 70.5636 15.4995 70.7837 16.5224C70.911 17.114 70.9637 17.6851 70.9615 18.2788C70.9589 19.021 70.9589 19.6927 70.9615 20.294C70.9615 20.2989 70.9595 20.3037 70.956 20.3072C70.9525 20.3107 70.9478 20.3126 70.9428 20.3126H66.7297C66.7277 20.3126 66.7257 20.3123 66.7239 20.3117C66.7213 20.3108 66.7189 20.3093 66.7169 20.3074C66.7135 20.304 66.7116 20.2994 66.7116 20.2946C66.7141 19.5399 66.7137 18.7939 66.7104 18.0566C66.7012 15.8816 65.1692 13.9297 62.9483 13.6668C62.7947 13.6487 62.5927 13.6399 62.3424 13.6405C60.9561 13.6432 59.6115 13.6434 58.3086 13.6411C58.2966 13.6409 58.2905 13.6469 58.2905 13.6589ZM89.9982 4.94308V2.504L85.7728 2.50369C85.7661 2.50369 85.7596 2.50637 85.7549 2.51113C85.7501 2.5159 85.7474 2.52236 85.7474 2.5291C85.7486 3.26847 85.7487 4.00295 85.7477 4.73253C85.7465 5.51169 85.5656 6.23913 85.2051 6.91485C84.2243 8.75288 82.105 9.64864 80.1219 8.91477C78.5645 8.33851 77.5277 6.85395 77.3539 5.23106C77.3343 5.04968 77.325 4.84801 77.326 4.62603C77.3291 3.95684 77.3295 3.25684 77.3272 2.52604C77.3272 2.51114 77.3198 2.50369 77.3049 2.50369H73.0991C73.0938 2.50369 73.0888 2.50576 73.085 2.50943C73.0813 2.5131 73.0792 2.51809 73.0792 2.52328C73.077 3.3259 73.0775 4.09466 73.0807 4.82954C73.0872 6.31349 73.5465 7.80785 74.2792 9.10421C75.4026 11.0922 77.207 12.7353 79.3936 13.3565C79.4066 13.3602 79.4132 13.3689 79.4132 13.3825V20.2958C79.4132 20.3003 79.4149 20.3046 79.4181 20.3077C79.4212 20.3109 79.4255 20.3126 79.43 20.3126H83.6407C83.6556 20.3126 83.663 20.3052 83.663 20.2903V13.3755C83.663 13.3659 83.6676 13.3598 83.6768 13.3571C85.9347 12.7194 87.7785 10.99 88.8858 8.94231C89.406 7.97994 89.7488 6.9632 89.914 5.89209C89.9524 5.64379 89.9805 5.32746 89.9982 4.94308Z" fill="white"/>
</svg>
